<svg xmlns="http://www.w3.org/2000/svg" width="134" height="133.994" viewBox="0 0 134 133.994"><g fill-rule="evenodd" clip-rule="evenodd"><path fill="#333" d="M98.7 88.177c-9.67 16.03-28.01 23.35-46.07 18.38-18.05-4.96-30.06-20.64-30.16-39.36-.09-18.71 11.76-34.51 29.77-39.65 18-5.15 36.42 1.99 46.24 17.92l13.73-8.45c-13.68-22.19-39.33-32.14-64.41-24.97-25.07 7.17-41.58 29.17-41.45 55.24.13 26.06 16.86 47.89 42 54.81 25.15 6.92 50.7-3.28 64.16-25.61l-13.81-8.31z"/><path fill="#777" d="M64.75 43.256v61.3c18.25-.59 33.22-14.17 35.94-31.79h8.13v17.82h11.89v-17.82H134v-11.89h-13.29v-17.82h-11.89v17.82h-8.19c-2.86-17.45-17.75-30.86-35.88-31.44v13.82zm12.24 4.14a23.84 23.84 0 0 1 9.53 13.48h-9.53v-13.48zm9.62 25.37a23.856 23.856 0 0 1-9.62 13.83v-13.83h9.62zm-24.65 17.95v-61.26c-20.04.82-36.03 17.31-36.03 37.54s15.99 36.72 36.03 37.54v-13.82zm-12.24-4.37c-6.04-4.31-9.97-11.37-9.97-19.35s3.93-15.04 9.97-19.35v38.7z"/><path fill="#DDD" d="M98.39 108.237c.95-.81 1.49-1.83 1.62-3.06.13-1.24-.19-2.31-.97-3.23-.8-.94-1.82-1.44-3.07-1.51-1.26-.08-2.37.3-3.35 1.13-.67.57-1.16 1.25-1.47 2.03l.84.99c.32-.88.77-1.57 1.33-2.04.78-.66 1.62-.96 2.53-.93.9.03 1.66.4 2.26 1.1.58.69.83 1.49.73 2.39-.1.9-.52 1.66-1.25 2.28-.57.48-1.34.84-2.3 1.09l.82.98c.9-.29 1.65-.69 2.28-1.22zm-7.22-2.45c-.36-.59-.83-.96-1.42-1.09-.58-.15-1.16-.05-1.75.31-.56.35-.92.82-1.07 1.42-.14.58-.04 1.15.3 1.72l1.65 2.69.94-.57-1.55-2.54c-.23-.36-.32-.71-.27-1.02.06-.32.23-.58.54-.76.69-.43 1.27-.25 1.75.54l1.56 2.54.95-.58-1.63-2.66zm-5.59 7.03c.46-.22.78-.53.97-.94.18-.42.17-.83-.01-1.24-.16-.34-.4-.57-.71-.69-.33-.13-.82-.17-1.48-.13-.67.04-1.06-.07-1.19-.35-.07-.16-.05-.33.05-.52.11-.19.27-.33.48-.43.32-.14.68-.14 1.09 0l.64-.77c-.75-.44-1.47-.5-2.17-.17a1.9 1.9 0 0 0-.98 1.01c-.19.46-.19.9 0 1.31.16.35.42.61.77.75s.84.19 1.47.16c.64-.04 1 .05 1.1.27.15.32.01.57-.41.76-.18.09-.35.12-.52.12a6.2 6.2 0 0 1-.6-.07l-.41.93c.81.21 1.44.21 1.91 0zm-3.78 1.36l.84-.3-.35-.98-.84.29-1.44-4.09-1.06.37 1.43 4.09-1.06.37.34.98 1.06-.37.52 1.47 1.07-.37-.51-1.46zm-8.23-1.7c.27-.42.63-.67 1.09-.78.47-.11.91-.03 1.33.22.43.25.69.6.79 1.03.1.46.02.89-.26 1.31-.26.4-.63.66-1.11.77-.46.1-.9.03-1.31-.22-.41-.25-.66-.6-.77-1.04-.09-.44-.01-.88.24-1.29zm3-1.49c-.69-.42-1.42-.54-2.2-.37-.71.17-1.28.59-1.71 1.27-.42.68-.55 1.39-.39 2.12.17.73.59 1.3 1.27 1.73.69.41 1.41.54 2.15.37.74-.17 1.32-.59 1.75-1.27.44-.69.58-1.38.42-2.09-.17-.75-.6-1.34-1.29-1.76zm-7.1.72l.16 3.01c.02.42-.08.78-.3 1.08-.22.29-.51.45-.85.47-.57.03-.88-.3-.91-1l-.18-3.45-1.14.06.16 2.91c.02.44-.07.82-.29 1.14-.22.31-.49.47-.83.49-.58.03-.89-.25-.92-.84l-.19-3.6-1.12.06.21 3.89c.02.43.19.8.51 1.11.33.3.7.44 1.13.42.35-.02.64-.13.9-.31.25-.2.5-.49.77-.89.18.37.39.65.63.81.24.16.56.24.97.22.31-.02.59-.11.81-.28.24-.16.48-.43.72-.78l.04.83 1.12-.06-.28-5.35-1.12.06zm-14.99 6.47c-.82-.19-1.46-.42-1.91-.69-.45-.29-.79-.71-1.03-1.29a2.97 2.97 0 0 1-.16-1.79c.11-.5.32-.93.63-1.29.32-.36.68-.63 1.1-.8.44-.16.86-.24 1.29-.22.43.02 1.05.12 1.87.3l.06.01-1.3 5.89-.55-.12zm3.19-6.61l-1.97-.44c-1.48-.32-2.7-.17-3.66.47s-1.55 1.49-1.79 2.55c-.23 1.05-.06 2.06.51 3.05.58.98 1.64 1.64 3.19 1.98l1.95.44 1.77-8.05zm-12.03-2.09c.46-.19.92-.19 1.36-.01.46.18.77.51.95.96.2.46.19.92 0 1.39-.18.42-.49.73-.95.92-.46.18-.9.18-1.34 0-.45-.18-.77-.5-.97-.95-.18-.45-.19-.91 0-1.36.18-.44.5-.75.95-.95zm-1.42 2.49c.05.42.2.8.47 1.16.26.35.59.6.97.76.63.25 1.28.22 1.95-.11a2.8 2.8 0 0 0 1.43-1.52c.3-.73.32-1.44.07-2.14-.25-.7-.7-1.18-1.35-1.44-.75-.31-1.53-.19-2.34.35l.4-.98-1.04-.43-2.01 4.93 1.04.42.41-1zm-3.98-.73l.78.43.51-.9-.77-.43 2.1-3.76-.98-.55-2.11 3.75-.96-.54-.51.89.97.55-.76 1.35.99.55.74-1.34zm-4.45-7.53c.5-.07.95.03 1.34.31.41.3.65.7.71 1.19.08.5-.04.95-.34 1.36-.28.39-.67.61-1.17.69-.49.06-.93-.05-1.32-.33-.4-.29-.64-.68-.72-1.17-.07-.49.03-.94.33-1.34.29-.4.68-.63 1.17-.71zm-2.01 2.1c-.05.43.01.84.18 1.26.17.41.43.74.77.99.56.4 1.21.52 1.94.38.75-.16 1.35-.54 1.8-1.16.47-.64.67-1.34.59-2.09s-.4-1.33-.98-1.76c-.66-.48-1.46-.55-2.39-.23l.63-.86-.91-.68-3.2 4.37.92.67.65-.89zm-3.63-3.74c-.49-.49-.79-.97-.89-1.43-.09-.47 0-.86.31-1.16.23-.23.59-.33 1.05-.3.48.04 1.06.4 1.75 1.08l.06.07-2.01 2.01-.27-.27zm-2.37 2.51c-.36-.36-.56-.72-.63-1.08-.06-.36.03-.66.28-.91.29-.29.63-.4 1.03-.32.39.07.82.33 1.27.76l-1.74 1.74c-.06-.05-.14-.11-.21-.19zm6.17-4.18l-.97-.97c-.76-.76-1.53-1.21-2.29-1.36-.77-.14-1.4.04-1.92.55-.72.73-.8 1.68-.2 2.86-.91-.24-1.61-.12-2.1.38-.41.4-.55.93-.43 1.58s.49 1.29 1.1 1.9l.93.93 5.88-5.87zm-8.1-7.11c.5.08.89.32 1.18.71.3.41.41.86.32 1.35-.08.5-.33.89-.74 1.19-.39.28-.82.38-1.32.3-.49-.09-.88-.32-1.16-.71-.29-.39-.4-.84-.33-1.33.08-.5.32-.89.71-1.19.4-.28.85-.39 1.34-.32zm-2.55 1.4c-.18.39-.24.81-.21 1.25.04.45.18.83.42 1.18.41.55.99.87 1.75.94.76.08 1.45-.11 2.06-.55.64-.47 1.04-1.08 1.19-1.81.16-.74.03-1.4-.4-1.97-.48-.66-1.22-.98-2.21-.95l.87-.63-.67-.92-4.36 3.19.67.92.89-.65zm-3.56-3.65c.24.44.57.74.98.89.42.14.83.11 1.21-.1.32-.17.52-.42.62-.73.1-.32.11-.8.02-1.45-.08-.64 0-1.04.26-1.18.15-.08.32-.08.51.02.2.09.35.24.46.43.16.3.19.65.07 1.06l.79.57c.38-.75.39-1.45.03-2.11-.23-.43-.58-.72-1.05-.89-.46-.15-.89-.13-1.28.09-.34.18-.56.44-.68.79-.12.35-.13.84-.06 1.45.09.61.02.97-.19 1.09-.3.16-.55.04-.77-.36-.09-.17-.14-.33-.15-.48 0-.16.01-.36.03-.6l-.93-.33c-.15.79-.11 1.4.13 1.84zM18 84.947c-.25-.65-.11-1.28.44-1.88l1.18 3.01c-.8-.04-1.34-.42-1.62-1.13zm-.89-1.75c-.31.71-.34 1.41-.06 2.12.28.72.77 1.23 1.48 1.54.71.29 1.42.31 2.11.04.75-.3 1.28-.79 1.58-1.48.31-.69.32-1.4.03-2.13-.37-.95-1.03-1.58-2-1.86l-.27.98c.64.21 1.08.61 1.31 1.2.15.38.17.78.06 1.2-.1.41-.39.77-.86 1.05l-1.65-4.2c-.83.31-1.4.83-1.73 1.54zm-4.44-6.6l-.29-1.97 7.14-1.03-.16-1.12-7.14 1.04-.29-1.97-1.13.16.74 5.05 1.13-.16zm4.85-10.11c.37.34.55.76.56 1.24.01.5-.16.93-.52 1.28-.34.35-.77.53-1.27.54-.47.01-.88-.16-1.23-.51s-.53-.76-.54-1.24c-.02-.49.15-.91.49-1.27.35-.35.76-.53 1.25-.54.49-.01.91.16 1.26.5zm-2.86-.33c-.36.22-.66.51-.88.9-.22.38-.33.78-.32 1.2.01.67.31 1.26.87 1.76.57.49 1.23.73 1.98.71.79-.01 1.46-.27 2-.78.55-.51.81-1.11.8-1.82-.02-.81-.44-1.49-1.26-2.02l1.07-.03-.02-1.13-5.36.1.02 1.13 1.1-.02zm3.46-7.33c.31.39.42.83.36 1.3-.08.51-.31.92-.71 1.23-.39.31-.84.42-1.34.34-.48-.06-.87-.3-1.18-.7a1.788 1.788 0 0 1 .36-2.52c.4-.3.84-.41 1.33-.35.49.08.88.31 1.18.7zm.86 4.23l.16-1.11-1.13-.16c.43-.17.78-.42 1.07-.77.28-.35.45-.75.52-1.18.09-.66-.11-1.28-.6-1.87-.5-.57-1.12-.92-1.89-1.03-.76-.11-1.45.06-2.08.48-.62.43-.99.99-1.09 1.68-.13.89.18 1.64.91 2.24l-4.13-.59-.16 1.11 8.42 1.2zm1.27-7.3l.29-1.1-8.2-2.16-.29 1.09 8.2 2.17zm-2.63-7.07c.26-.66.8-1.04 1.62-1.12l-1.18 3.1c-.57-.58-.72-1.24-.44-1.98zm.53-1.94c-.73.32-1.24.84-1.51 1.57-.29.74-.26 1.47.07 2.18.33.72.85 1.21 1.57 1.48.77.3 1.5.29 2.21-.02s1.21-.85 1.5-1.6c.37-.98.3-1.91-.24-2.79l-.89.56c.35.6.4 1.21.17 1.81-.15.39-.4.71-.77.95-.37.25-.83.32-1.38.21l1.65-4.33c-.85-.33-1.64-.34-2.38-.02zm1.11-3.89c-.24.45-.3.9-.2 1.34.11.45.36.77.76.98.32.18.65.21.97.12.34-.1.76-.37 1.26-.8.51-.44.9-.59 1.16-.44.15.08.24.22.27.44.04.22-.01.44-.12.65-.16.3-.45.52-.87.65l-.04 1c.85-.1 1.46-.49 1.82-1.17.24-.44.29-.9.17-1.39-.12-.5-.38-.85-.79-1.06-.34-.18-.69-.23-1.06-.13-.36.1-.79.36-1.27.77-.48.41-.82.56-1.04.44-.3-.16-.34-.44-.13-.85.1-.17.21-.3.34-.4.13-.1.3-.19.52-.3l-.23-.99c-.77.31-1.28.69-1.52 1.14zm3.41-10.76c-.33.42-.46.86-.37 1.34.09.48.37.91.85 1.3l1 .81-.63.78.82.66.63-.78 3.41 2.76.72-.89-3.41-2.76.95-1.17-.82-.66-.95 1.17-1.06-.86c-.21-.17-.33-.34-.38-.53-.04-.18.01-.35.13-.51.16-.18.42-.33.8-.46l-.9-.73c-.36.16-.62.33-.79.53zm9.67.33a1.7 1.7 0 0 1-.51 1.22c-.34.33-.75.5-1.23.5-.49.01-.88-.14-1.2-.47-.32-.33-.48-.74-.47-1.22.02-.48.2-.89.55-1.23.33-.33.74-.5 1.22-.5.47 0 .87.16 1.18.49.32.32.47.73.46 1.21zm-1.76 2.81c.81 0 1.49-.27 2.05-.82.53-.51.8-1.17.8-1.97.01-.79-.25-1.46-.77-1.99s-1.17-.8-1.97-.8c-.79 0-1.47.26-2.02.8-.53.52-.8 1.18-.82 1.98-.01.81.23 1.47.73 1.99.53.54 1.2.81 2 .81zm1.92-8.01l3.2 4.22.9-.67-1.78-2.34c-.24-.31-.33-.65-.29-1.02.05-.36.22-.66.52-.89.06-.03.18-.1.37-.2l-.4-1.1c-.18.09-.32.16-.41.22-.3.23-.49.5-.57.79-.07.3-.07.7 0 1.2l-.66-.87-.88.66zm12.18-4.23l-4.48-4.61-1.1.43 6.53 6.73.32-6.75 4.72 4.84.42-9.37-1.11.42-.3 6.35-4.71-4.81-.29 6.77zm12.75-2.6c-.29.39-.66.63-1.11.7-.47.08-.91-.01-1.31-.29-.41-.27-.64-.63-.72-1.06-.07-.46.03-.88.32-1.27s.67-.62 1.15-.7c.46-.08.88.01 1.28.29.39.27.62.62.7 1.06.07.45-.03.87-.31 1.27zm-3.04 1.3a2.8 2.8 0 0 0 2.15.48c.72-.12 1.3-.5 1.76-1.15.45-.65.62-1.34.5-2.07-.12-.73-.51-1.32-1.16-1.77-.66-.46-1.36-.62-2.1-.5s-1.33.51-1.8 1.16c-.47.65-.65 1.33-.53 2.04.13.75.52 1.35 1.18 1.81zm6.14-5.56l.23 5.35 1.13-.05-.12-2.96c-.02-.4.09-.74.34-1.01.24-.28.56-.42.94-.45.07 0 .21.02.43.05l.29-1.14c-.2-.04-.36-.06-.47-.06-.38.02-.69.13-.92.34s-.46.54-.69.98l-.05-1.1-1.11.05zm8.91 4.1c-.38.31-.82.44-1.32.4-.47-.04-.87-.25-1.19-.65-.33-.38-.46-.81-.42-1.29.04-.5.25-.9.63-1.22.38-.31.82-.44 1.33-.4.48.05.88.26 1.2.64.31.39.46.82.41 1.3-.04.5-.25.9-.64 1.22zm.65-2.78c-.19-.4-.45-.73-.79-1-.34-.26-.73-.41-1.14-.45-.7-.06-1.33.16-1.89.66-.55.51-.86 1.15-.93 1.91-.07.79.12 1.48.57 2.08.45.6 1.01.93 1.71 1 .87.07 1.6-.29 2.21-1.08l-.1 1.11 1.1.1.76-8.41-1.12-.11-.38 4.19zm7.56-1.22c.23.35.3.72.21 1.09-.13.5-.42.81-.87.93-.45.13-1.09.09-1.92-.11l.7-2.81c1.02.25 1.65.55 1.88.9zm-4.73 5.91l1.09.28.82-3.31c1.2.31 2.16.31 2.87-.01s1.14-.83 1.32-1.52c.17-.69.03-1.31-.43-1.88-.45-.57-1.14-.97-2.05-1.2l-1.62-.4-2 8.04zm8.16-3.2l-1.91 4.93 1.04.4 1.05-2.73c.14-.36.38-.63.71-.78.34-.15.68-.16 1.03-.03.06.03.19.1.37.22l.72-.92c-.17-.12-.3-.2-.4-.24-.36-.14-.68-.16-.97-.06-.3.1-.64.31-1.02.62l.39-1.01-1.01-.4zm6.58 3.88c.61.33.9.91.88 1.72l-2.84-1.54c.63-.48 1.28-.54 1.96-.18zm1.81.77c-.21-.75-.65-1.31-1.32-1.67-.68-.37-1.39-.44-2.13-.21-.73.23-1.28.67-1.63 1.32-.38.71-.46 1.42-.26 2.15.21.72.66 1.27 1.36 1.65.89.49 1.8.53 2.72.13l-.42-.93c-.63.25-1.22.23-1.78-.07-.36-.2-.63-.48-.82-.87-.18-.38-.19-.84-.02-1.36l3.97 2.14c.42-.77.53-1.53.33-2.28zm4.18 1.64c-.42-.29-.84-.41-1.29-.37-.45.05-.8.26-1.06.62-.2.29-.29.61-.24.94.05.34.25.79.62 1.33.36.55.45.95.28 1.19-.1.14-.26.21-.47.22a1.15 1.15 0 0 1-.61-.21c-.28-.19-.46-.51-.53-.94l-.98-.17c-.01.86.29 1.51.91 1.95.4.29.85.4 1.35.35.49-.07.88-.28 1.14-.65.22-.31.31-.65.26-1.02-.05-.37-.25-.82-.59-1.34-.34-.53-.44-.89-.29-1.08.19-.28.47-.28.84-.02.16.12.28.25.35.39.08.14.16.33.23.55l1.01-.1c-.21-.8-.52-1.34-.93-1.64zm4 3.31c-.37-.33-.78-.49-1.22-.49s-.81.16-1.1.49c-.23.27-.34.57-.32.89.01.34.17.79.47 1.36.29.58.35.98.15 1.19-.1.12-.27.18-.48.16s-.41-.1-.58-.25c-.25-.22-.38-.54-.42-.96l-.92-.27c-.11.83.12 1.49.68 1.98.36.32.79.48 1.28.47.49-.01.88-.18 1.18-.51.24-.28.36-.6.35-.97-.01-.37-.15-.82-.43-1.37-.28-.54-.34-.9-.19-1.08.22-.25.5-.23.84.07.14.13.24.27.3.41.05.14.11.33.17.56h.98c-.12-.79-.37-1.35-.74-1.68z"/></g></svg>