<svg xmlns="http://www.w3.org/2000/svg" width="213.987" height="214" viewBox="0 0 213.987 214"><path fill-rule="evenodd" clip-rule="evenodd" fill="#555" d="M30.634 15.19c5.18 0 45.23 10.35 55.61 45.46 1.15-3.74 2.01-32.8-15.28-40.86-4.03-3.17-19.3-16.11-56.47-8.35 11.24 10.36 7.78 28.2 26.8 47.48 10.66 11.22 27.66 9.21 34.86 10.93 6.05 4.61 6.34 13.81 6.34 17.84.31 4.54.99 8.75 1.93 12.63-34.54 1.98-60.93 12.63-60.93 25.47 0 14.25 32.46 25.8 72.5 25.8s72.5-11.55 72.5-25.8c0-14.24-32.46-25.79-72.5-25.79-1.07 0-2.14.01-3.21.02-.73-1.73-1.29-3.69-1.62-5.91 1.18-15.27 12.08-22.94 17.55-26.85 12.1-5.46 15.56 6.62 46.97 7.2 14.98.57 34.86-12.66 45.81-9.79-5.76-7.76-15.27-29.63-39.47-31.93-3.46-.29-19.6-4.32-43.51 13.52 44.95-15.54 65.4 6.62 70.3 10.36-27.08-13.24-51.86-14.96-77.22 1.44-6.34 3.16-16.42 12.37-20.17 17.55-2.27 2.5-3.6 5.36-4.38 7.9-.32-.77-.59-1.65-.8-2.72-.58-.87-5.19-45.75-55.61-65.6zM95.994 206c39.71 0 71.97-11.36 72.5-25.44V126.15c-.09 2.35-1.06 4.62-2.8 6.77v46.13c-.51 12.96-31.52 23.42-69.7 23.42-38.17 0-69.18-10.46-69.69-23.42v-46.12c-1.75-2.16-2.72-4.43-2.81-6.78V180.56c.53 14.08 32.79 25.44 72.5 25.44z"/></svg>