<svg id="レイヤー_1" xmlns="http://www.w3.org/2000/svg" width="181.417" height="181.417" viewBox="0 0 181.417 181.417"><path fill-rule="evenodd" clip-rule="evenodd" fill="#555" d="M18.208 34.5V147.27c.53 14.08 32.79 25.44 72.5 25.44s71.97-11.36 72.5-25.44V34.5c0-14.24-32.46-25.79-72.5-25.79s-72.5 11.548-72.5 25.79zm2.8 7.128c8.7 10.78 36.61 18.67 69.7 18.67s61.01-7.89 69.7-18.67v29.13c-.51 12.96-31.52 23.42-69.7 23.42-38.13 0-69.12-10.44-69.7-23.38l.01-.04v-7.12l-.01-22.01zm69.7 56.08c33.09 0 61-7.88 69.7-18.66v30.71c-.51 12.96-31.52 23.42-69.7 23.42-38.17 0-69.18-10.46-69.69-23.42V97.638l-.01-18.59c8.71 10.77 36.62 18.66 69.7 18.66zm0 39c33.09 0 61-7.88 69.7-18.66v27.71c-.51 12.96-31.52 23.42-69.7 23.42-38.17 0-69.18-10.46-69.69-23.42v-.32l-.01-27.39c8.71 10.77 36.62 18.66 69.7 18.66z"/></svg>