<svg xmlns="http://www.w3.org/2000/svg" width="228.54" height="228" viewBox="0 0 228.54 228"><g id="brand-icon" fill-rule="evenodd" clip-rule="evenodd"><path id="c-mark" fill="#27AE60" d="M185.07 96.14c8.25 32.74-6.04 65.4-35.79 81.93-29.63 16.45-65.11 11.62-89.1-12.02-23.92-23.56-28.92-58.4-12.6-87.61 16.37-29.28 49.02-43.7 82.07-36.14l6.78-28.18C90.4 3.67 45.01 23.84 22.29 64.58-.35 105.19 6.58 153.61 39.77 186.4c33.35 32.94 82.73 39.78 124.04 16.93 41.56-22.98 61.54-68.55 49.99-114.23l-28.73 7.04z"/><path id="dbt-mark" fill="#666" d="M83.57 82.39l60.93 60.16 17.83 17.61c22.87-23.91 24.66-60.27 5.36-86.12l10.52-10.39 23.13 22.65 15.46-15.21-23.17-22.64 17.27-17.04-15.45-15.06-17.23 17.04-23.05-22.53-15.33 15.21 23 22.52-10.57 10.46c-26.16-18.41-62.45-16.35-86.34 5.93l17.64 17.41zm20.97-10.3c9.98-1.85 20.5-.21 29.54 4.94l-12.25 12.1-17.29-17.04zm44.97 19.88c5.52 9.05 7.33 19.69 5.44 29.78l-17.83-17.56 12.39-12.22zm-8.64 54.1L80.02 85.96 62.38 68.54c-24.43 26.37-23.79 67.31 1.95 92.9 25.82 25.67 67.49 26.53 94.37 2.25l-17.83-17.62zm-21.36 9.94c-13.28 2.14-27.36-1.86-37.56-11.98-10.18-10.1-14.17-24-11.98-37.07l49.54 49.05z"/></g></svg>