<svg xmlns="http://www.w3.org/2000/svg" width="305" height="274" viewBox="0 0 305 274"><g id="brand-typo" fill-rule="evenodd" clip-rule="evenodd" fill="#666"><path d="M19.52 262.69c-.02-.12-.04-.24-.04-.3a.318.318 0 0 0-.09-.15c-.05-.03-.07-.06-.11-.06-.14 0-.34.12-.57.3-.22.21-.52.42-.88.66-.36.23-.81.47-1.31.65-.51.21-1.12.3-1.8.3-.83 0-1.58-.18-2.23-.57-.68-.35-1.22-.92-1.67-1.64-.45-.71-.81-1.58-1.04-2.62-.22-1.05-.34-2.24-.34-3.61 0-1.4.12-2.66.39-3.73.27-1.07.63-2 1.08-2.74.45-.75 1.01-1.32 1.67-1.7.63-.36 1.35-.57 2.14-.57.7 0 1.31.12 1.83.3.49.21.92.41 1.28.65.36.24.63.48.86.66.22.21.38.3.52.3.04 0 .09 0 .13-.06.05-.03.07-.09.12-.18l.06-.3c0-.12.03-.24.03-.42 0-.12-.03-.24-.03-.35 0-.09-.02-.18-.02-.27l-.07-.21c-.04-.06-.11-.18-.22-.33-.12-.12-.32-.3-.63-.54-.32-.21-.66-.38-1.04-.56-.38-.18-.79-.3-1.24-.42-.45-.12-.93-.18-1.4-.18-1.04 0-1.98.27-2.82.75-.86.5-1.58 1.22-2.19 2.14-.6.93-1.08 2.06-1.39 3.37-.34 1.35-.5 2.84-.5 4.51 0 1.64.14 3.1.45 4.35.32 1.29.75 2.36 1.33 3.23.59.89 1.29 1.55 2.1 1.99.81.45 1.74.66 2.75.66.63 0 1.2-.06 1.74-.21.52-.12.97-.3 1.37-.51.41-.17.72-.38.99-.59s.43-.36.52-.45c.09-.09.14-.18.18-.24.03-.06.05-.15.07-.24 0-.06.02-.15.02-.27 0-.09.03-.2.03-.35 0-.18-.03-.33-.03-.45zM34.77 245.42c0-.06-.02-.12-.04-.18a.278.278 0 0 0-.12-.12c-.04-.03-.13-.06-.22-.09-.09 0-.2-.03-.34-.03-.13 0-.27.03-.36.03-.09.03-.18.06-.23.09-.04.03-.09.06-.11.12-.02.06-.02.12-.02.18v12.62c0 1.01-.11 1.9-.29 2.65-.21.78-.5 1.4-.86 1.91-.38.51-.84.89-1.38 1.13-.54.24-1.12.36-1.8.36s-1.29-.12-1.83-.39c-.54-.24-.99-.62-1.35-1.13-.38-.51-.68-1.16-.86-1.94-.2-.77-.29-1.67-.29-2.68v-12.53c0-.06-.02-.12-.05-.18-.02-.06-.06-.09-.11-.12-.04-.03-.13-.06-.22-.09-.09 0-.21-.03-.34-.03-.14 0-.25.03-.34.03-.09.03-.18.06-.23.09-.06.03-.11.06-.13.12-.02.06-.02.12-.02.18v12.94c0 1.26.13 2.33.4 3.28.27.96.68 1.76 1.17 2.42.5.66 1.11 1.13 1.79 1.46.67.33 1.44.48 2.27.48.91 0 1.72-.15 2.44-.51a5.46 5.46 0 0 0 1.87-1.52c.5-.65.9-1.49 1.17-2.47.27-.96.43-2.09.43-3.38v-12.7zM48.17 258.04c-.25-.57-.56-1.08-.97-1.53-.4-.41-.88-.8-1.4-1.13-.51-.3-1.03-.6-1.57-.89-.55-.27-1.09-.54-1.61-.84-.51-.27-.97-.57-1.37-.92-.41-.33-.75-.72-.99-1.17-.25-.44-.36-.98-.36-1.64 0-.42.04-.8.18-1.16.13-.36.31-.69.58-.96.27-.26.59-.47.99-.65.39-.15.86-.24 1.4-.24s1.02.12 1.45.3c.4.21.76.41 1.08.65.29.24.54.48.74.66.21.21.36.3.48.3.04 0 .09 0 .13-.06.05-.06.07-.12.09-.21.02-.06.05-.18.07-.3 0-.12.02-.24.02-.39s-.02-.26-.02-.38-.02-.21-.02-.3L47 247c-.02-.06-.07-.15-.16-.27-.09-.12-.25-.3-.52-.54a7.1 7.1 0 0 0-.88-.59c-.31-.18-.67-.3-1.03-.42s-.73-.18-1.09-.18c-.72 0-1.39.12-1.98.36-.61.24-1.13.59-1.56 1.04-.43.45-.76.99-.99 1.61a6.73 6.73 0 0 0-.34 2.15c0 .84.12 1.55.36 2.15.25.59.59 1.1 1 1.52.4.42.85.8 1.37 1.1.52.33 1.06.63 1.6.9.54.3 1.06.56 1.58.83.52.3.99.6 1.4.93.4.36.72.74.97 1.19.25.45.38.99.38 1.58 0 .6-.11 1.14-.29 1.58-.18.48-.45.87-.77 1.17-.34.32-.74.56-1.19.74-.45.18-.97.24-1.51.24-.68 0-1.29-.09-1.79-.3-.51-.18-.94-.42-1.3-.65-.36-.24-.68-.45-.91-.66-.22-.18-.4-.3-.51-.3-.07 0-.12.03-.16.06-.05.03-.09.09-.14.15-.04.09-.06.18-.06.3-.03.12-.03.3-.03.48 0 .26.03.47.07.65.05.18.11.36.2.48.09.12.27.3.54.48.25.18.57.38.95.56.36.18.79.36 1.29.48.47.12.99.18 1.55.18.79 0 1.54-.12 2.21-.39.68-.27 1.24-.65 1.74-1.16.5-.51.88-1.13 1.15-1.85.27-.72.41-1.55.41-2.48 0-.8-.14-1.49-.39-2.08zM62.32 245.57c-.03-.12-.05-.24-.09-.33l-.14-.18a.322.322 0 0 0-.18-.06H49.78c-.09 0-.16.03-.21.06l-.13.18c-.05.09-.07.21-.07.33-.02.12-.02.27-.02.41 0 .18 0 .3.02.42 0 .12.02.21.07.27.04.09.09.15.13.18.05.06.12.06.21.06h5.34v18.67c0 .06 0 .12.02.18.03.06.07.12.12.15.04.03.13.06.22.06.09.03.23.03.36.03.14 0 .25 0 .34-.03.09 0 .18-.03.23-.06.04-.03.09-.09.11-.15.02-.06.05-.12.05-.18v-18.67h5.34c.04 0 .11 0 .18-.06.05-.03.09-.09.14-.18.04-.06.06-.15.09-.27 0-.12.02-.24.02-.42 0-.14-.02-.29-.02-.41zM75.83 258.75c-.2 1.05-.54 1.97-.99 2.75-.46.8-1.06 1.43-1.81 1.9-.74.48-1.64.69-2.73.69-1.12 0-2.05-.21-2.77-.66-.72-.41-1.31-1.04-1.76-1.81-.45-.78-.74-1.68-.92-2.75a20.14 20.14 0 0 1-.27-3.43c0-1.13.09-2.21.29-3.25.2-1.05.54-1.97.99-2.75.45-.77 1.06-1.37 1.8-1.84.73-.45 1.65-.69 2.73-.69 1.09 0 1.99.24 2.71.66.72.44 1.31 1.04 1.76 1.81.45.78.77 1.71.97 2.75.18 1.04.29 2.15.29 3.31s-.11 2.27-.29 3.31zm1.31-7.75c-.27-1.26-.7-2.33-1.29-3.23-.59-.89-1.31-1.58-2.19-2.05-.9-.48-1.94-.72-3.15-.72-1.24 0-2.33.27-3.25.78-.93.5-1.69 1.22-2.3 2.14-.63.93-1.08 2.03-1.38 3.34-.31 1.32-.45 2.75-.45 4.36 0 1.61.14 3.07.41 4.35.27 1.29.67 2.36 1.26 3.26.56.89 1.29 1.58 2.19 2.05.88.48 1.94.72 3.2.72 1.22 0 2.3-.24 3.23-.75.92-.5 1.69-1.22 2.3-2.17.6-.93 1.06-2.06 1.37-3.37.32-1.32.47-2.81.47-4.45 0-1.58-.15-3.01-.42-4.26zM95.68 246.01c0-.17-.03-.35-.07-.47a1.48 1.48 0 0 0-.18-.33c-.07-.06-.14-.12-.2-.15-.09-.03-.16-.06-.23-.06h-.9c-.14 0-.27.03-.38.06-.14.06-.25.12-.34.24-.09.12-.21.24-.3.42-.09.17-.18.41-.24.65l-4.33 16.56h-.05l-4.26-16.62c-.07-.18-.14-.36-.23-.53-.09-.18-.18-.3-.29-.42a1.61 1.61 0 0 0-.41-.27c-.15-.06-.33-.09-.54-.09h-.81c-.13 0-.29.09-.45.24-.16.15-.23.42-.23.77v19.57c0 .06 0 .12.03.18.02.06.06.12.11.15s.14.06.23.06c.09.03.2.03.33.03.14 0 .27 0 .36-.03.09 0 .16-.03.23-.06.05-.03.09-.09.11-.15.03-.06.05-.12.05-.18v-18.85h.02l4.96 18.97c0 .06 0 .09.05.12.04.06.09.09.13.09.05.03.14.06.23.06.09.03.18.03.31.03.09 0 .18 0 .27-.03.09 0 .16-.03.21-.06.04 0 .09-.03.13-.09.05-.03.07-.06.09-.12l5.12-18.97h.02v18.85c0 .06 0 .12.03.18.02.06.06.12.11.15.04.03.13.06.22.06.1.03.21.03.34.03.14 0 .27 0 .36-.03.09 0 .16-.03.23-.06.04-.03.09-.09.11-.15.02-.06.05-.12.05-.18v-19.57zM115.64 259.23c-.27 1.1-.65 2.03-1.15 2.74-.49.72-1.12 1.26-1.87 1.61-.76.36-1.69.51-2.77.51h-2.48v-17.18h2.46c1.17 0 2.12.21 2.88.63.75.41 1.38 1.01 1.87 1.76.5.74.86 1.64 1.09 2.65.22 1.04.36 2.15.36 3.34 0 1.55-.14 2.86-.39 3.94zm1.36-8.2c-.32-1.26-.79-2.33-1.4-3.23-.63-.89-1.4-1.58-2.32-2.05-.93-.48-2.06-.75-3.36-.75h-3.32c-.16 0-.31.09-.45.24-.16.15-.23.42-.23.77v18.98c0 .38.07.65.23.8.14.15.29.21.45.21h3.09c1.31 0 2.46-.21 3.41-.69a6.75 6.75 0 0 0 2.41-2.05c.63-.9 1.13-2.03 1.46-3.4.32-1.35.5-2.9.5-4.66 0-1.55-.16-2.92-.47-4.17zM129.31 258.36h-6.2l3.09-11.45 3.11 11.45zm-2.05-12.97c-.04-.06-.07-.12-.11-.18a.44.44 0 0 0-.18-.12.88.88 0 0 0-.29-.06c-.12 0-.25-.03-.39-.03-.16 0-.29.03-.4.03-.12 0-.21.03-.3.06a.34.34 0 0 0-.18.12c-.04.06-.09.12-.11.18l-5.52 19.86c-.05.18-.07.3-.07.39 0 .12.02.18.07.24.04.06.11.09.22.09.09.03.23.03.41.03.13 0 .24 0 .33-.03.09 0 .16-.03.21-.09.04-.03.09-.06.13-.12l.07-.18 1.44-5.31h7.24l1.45 5.34c0 .06.02.12.06.18.03.06.07.09.12.12.04.03.13.06.22.06.09.03.2.03.36.03.14 0 .27 0 .36-.03.09 0 .18-.03.23-.09a.38.38 0 0 0 .07-.24c0-.09 0-.21-.05-.39l-5.39-19.86zM146.46 245.57c-.03-.12-.05-.24-.09-.33l-.14-.18a.322.322 0 0 0-.18-.06h-12.13a.34.34 0 0 0-.2.06l-.14.18c-.04.09-.07.21-.07.33-.02.12-.02.27-.02.41 0 .18 0 .3.02.42 0 .12.03.21.07.27.05.09.09.15.14.18.04.06.11.06.2.06h5.34v18.67c0 .06 0 .12.03.18.02.06.06.12.11.15.04.03.13.06.22.06.09.03.23.03.36.03.14 0 .25 0 .34-.03.09 0 .18-.03.23-.06.04-.03.09-.09.11-.15.02-.06.05-.12.05-.18v-18.67h5.34c.05 0 .11 0 .18-.06.05-.03.09-.09.14-.18.04-.06.06-.15.09-.27 0-.12.02-.24.02-.42 0-.14-.02-.29-.02-.41zM155.44 258.36h-6.2l3.08-11.45 3.12 11.45zm-2.06-12.97c-.04-.06-.06-.12-.11-.18-.04-.06-.11-.09-.18-.12a.88.88 0 0 0-.29-.06c-.11 0-.25-.03-.39-.03-.15 0-.29.03-.4.03-.11 0-.2.03-.29.06-.09.03-.14.06-.18.12a.94.94 0 0 0-.12.18l-5.52 19.86c-.05.18-.07.3-.07.39 0 .12.02.18.07.24.04.06.11.09.22.09.09.03.23.03.41.03.13 0 .25 0 .34-.03.09 0 .16-.03.2-.09a.5.5 0 0 0 .14-.12l.06-.18 1.45-5.31h7.24l1.44 5.34c0 .06.02.12.07.18.02.06.06.09.11.12.04.03.13.06.22.06.09.03.21.03.37.03.13 0 .27 0 .36-.03.09 0 .18-.03.22-.09.05-.06.07-.12.07-.24 0-.09 0-.21-.05-.39l-5.39-19.86zM170.87 262c-.18.48-.43.87-.75 1.17-.31.29-.7.53-1.1.68-.41.18-.88.24-1.4.24h-3.68v-7.64h3.02c.75 0 1.38.09 1.88.27.49.18.92.42 1.26.75.34.36.61.77.79 1.25.18.48.27 1.05.27 1.7 0 .6-.11 1.14-.29 1.58zm-1.33-9.9c-.12.48-.3.89-.52 1.25-.25.36-.57.66-.93.87-.36.24-.83.33-1.42.33h-2.73v-7.64h2.48c.66 0 1.2.09 1.6.27.41.18.73.44.97.74.25.33.43.72.55 1.17.11.47.18.98.18 1.52 0 .53-.07 1.01-.18 1.49zm2.79 6.29c-.18-.59-.43-1.1-.74-1.55-.32-.45-.7-.8-1.11-1.1-.43-.3-.88-.48-1.35-.6.34-.21.63-.48.88-.8.25-.33.45-.69.63-1.11.18-.38.29-.8.38-1.28s.14-.95.14-1.49c0-.84-.09-1.58-.27-2.27-.18-.65-.45-1.22-.81-1.7-.36-.48-.84-.83-1.4-1.1-.57-.24-1.29-.39-2.19-.39h-3.31c-.16 0-.32.09-.45.24-.16.15-.23.42-.23.77v18.98c0 .38.07.65.23.8.15.15.31.21.47.21h4.19c.59 0 1.09-.06 1.54-.18.45-.12.85-.27 1.24-.51.36-.2.7-.47 1.01-.8.29-.33.54-.72.77-1.14.2-.41.36-.89.47-1.4.11-.5.18-1.07.18-1.7 0-.65-.09-1.28-.27-1.88zM184.45 258.36h-6.21l3.09-11.45 3.12 11.45zm-2.06-12.97c-.04-.06-.06-.12-.11-.18-.04-.06-.11-.09-.18-.12a.88.88 0 0 0-.29-.06c-.12 0-.25-.03-.39-.03-.15 0-.29.03-.4.03s-.2.03-.29.06a.33.33 0 0 0-.19.12c-.04.06-.09.12-.11.18l-5.52 19.86c-.05.18-.07.3-.07.39 0 .12.02.18.07.24.04.06.11.09.22.09.09.03.23.03.41.03.13 0 .25 0 .34-.03.09 0 .15-.03.2-.09.04-.03.09-.06.13-.12l.07-.18 1.45-5.31h7.23l1.45 5.34c0 .06.02.12.07.18.02.06.06.09.11.12.04.03.13.06.22.06.09.03.21.03.36.03.14 0 .28 0 .37-.03.09 0 .18-.03.22-.09.05-.06.07-.12.07-.24 0-.09 0-.21-.05-.39l-5.39-19.86zM199.79 258.04c-.25-.57-.57-1.08-.97-1.53-.41-.41-.88-.8-1.4-1.13-.52-.3-1.04-.6-1.58-.89-.54-.27-1.08-.54-1.6-.84-.52-.27-.97-.57-1.38-.92-.4-.33-.74-.72-.99-1.17-.25-.44-.36-.98-.36-1.64 0-.42.04-.8.18-1.16.13-.36.32-.69.59-.96.27-.26.58-.47.99-.65.38-.15.85-.24 1.4-.24.54 0 1.01.12 1.44.3.41.21.77.41 1.08.65.29.24.54.48.75.66.2.21.36.3.47.3.04 0 .09 0 .13-.06.05-.06.07-.12.09-.21.03-.06.05-.18.07-.3 0-.12.03-.24.03-.39s-.03-.26-.03-.38-.02-.21-.02-.3l-.07-.18c-.02-.06-.07-.15-.16-.27-.09-.12-.24-.3-.51-.54-.27-.21-.57-.41-.88-.59-.32-.18-.68-.3-1.04-.42s-.72-.18-1.08-.18c-.73 0-1.4.12-1.99.36-.61.24-1.13.59-1.55 1.04-.43.45-.77.99-1 1.61a6.73 6.73 0 0 0-.33 2.15c0 .84.11 1.55.36 2.15.24.59.58 1.1.99 1.52.4.42.86.8 1.37 1.1.52.33 1.06.63 1.61.9.54.3 1.06.56 1.57.83.52.3 1 .6 1.4.93.41.36.72.74.97 1.19.25.45.39.99.39 1.58 0 .6-.12 1.14-.3 1.58-.18.48-.45.87-.76 1.17-.34.32-.75.56-1.2.74-.45.18-.97.24-1.51.24-.68 0-1.29-.09-1.78-.3a6.15 6.15 0 0 1-1.31-.65c-.36-.24-.68-.45-.9-.66-.23-.18-.41-.3-.52-.3-.07 0-.11.03-.16.06-.04.03-.09.09-.13.15a.58.58 0 0 0-.07.3c-.02.12-.02.3-.02.48 0 .26.02.47.06.65.05.18.12.36.21.48s.27.3.54.48c.25.18.56.38.94.56.37.18.79.36 1.29.48.47.12.99.18 1.56.18.79 0 1.53-.12 2.21-.39.67-.27 1.24-.65 1.73-1.16.5-.51.88-1.13 1.15-1.85.27-.72.41-1.55.41-2.48 0-.8-.14-1.49-.38-2.08zM212.49 264.63c-.03-.12-.05-.21-.09-.3l-.14-.18a.35.35 0 0 0-.16-.06h-6.81v-7.64h6.83c.05 0 .12 0 .16-.06.05-.02.09-.08.14-.14.02-.06.04-.18.07-.3 0-.12.02-.24.02-.39 0-.18-.02-.33-.02-.45l-.07-.33-.14-.17a.314.314 0 0 0-.16-.06h-6.83v-7.64h6.81c.05 0 .11 0 .16-.06.05-.03.09-.09.14-.18.04-.06.06-.15.09-.27 0-.12.02-.24.02-.42 0-.14-.02-.29-.02-.41-.03-.12-.05-.24-.09-.33-.05-.06-.07-.12-.12-.18a.314.314 0 0 0-.16-.06h-7.57c-.16 0-.32.09-.48.24-.15.15-.22.42-.22.77v18.98c0 .38.07.65.22.8.16.15.32.21.48.21h7.55c.05 0 .11 0 .16-.06.05-.03.09-.09.14-.18.04-.06.06-.18.09-.3 0-.12.02-.24.02-.41 0-.15-.02-.3-.02-.42zM232.84 245.57c-.03-.12-.05-.24-.09-.33l-.14-.18a.35.35 0 0 0-.18-.06H220.3c-.09 0-.16.03-.21.06l-.13.18c-.05.09-.07.21-.07.33-.02.12-.02.27-.02.41 0 .18 0 .3.02.42 0 .12.02.21.07.27.04.09.09.15.13.18.05.06.12.06.21.06h5.34v18.67c0 .06 0 .12.02.18.03.06.07.12.12.15.04.03.13.06.22.06.09.03.23.03.36.03.14 0 .25 0 .34-.03.09 0 .18-.03.23-.06.04-.03.09-.09.11-.15.02-.06.04-.12.04-.18v-18.67h5.35c.04 0 .11 0 .18-.06.04-.03.09-.09.14-.18.04-.06.06-.15.09-.27 0-.12.02-.24.02-.42 0-.14-.02-.29-.02-.41zM243.26 258.36h-6.2l3.09-11.45 3.11 11.45zm-2.05-12.97c-.05-.06-.07-.12-.12-.18-.04-.06-.11-.09-.18-.12a.88.88 0 0 0-.29-.06c-.11 0-.25-.03-.38-.03-.16 0-.3.03-.41.03s-.2.03-.29.06c-.09.03-.14.06-.18.12a.94.94 0 0 0-.12.18l-5.52 19.86c-.05.18-.07.3-.07.39 0 .12.02.18.07.24.04.06.11.09.22.09.1.03.23.03.41.03.14 0 .25 0 .34-.03.09 0 .16-.03.2-.09a.5.5 0 0 0 .14-.12l.06-.18 1.45-5.31h7.24l1.44 5.34c0 .06.02.12.07.18.02.06.07.09.11.12.05.03.14.06.23.06.09.03.2.03.36.03.13 0 .27 0 .36-.03.09 0 .18-.03.22-.09.05-.06.07-.12.07-.24 0-.09 0-.21-.04-.39l-5.39-19.86zM257.24 262c-.18.48-.42.87-.74 1.17-.32.29-.7.53-1.1.68-.41.18-.88.24-1.4.24h-3.68v-7.64h3.02c.75 0 1.38.09 1.87.27.5.18.93.42 1.27.75.34.36.61.77.79 1.25s.27 1.05.27 1.7c0 .6-.12 1.14-.3 1.58zm-1.33-9.9c-.11.48-.29.89-.51 1.25-.25.36-.57.66-.93.87-.36.24-.83.33-1.42.33h-2.73v-7.64h2.48c.66 0 1.2.09 1.6.27.41.18.72.44.97.74.25.33.43.72.54 1.17.12.47.18.98.18 1.52 0 .53-.06 1.01-.18 1.49zm2.8 6.29c-.18-.59-.43-1.1-.74-1.55-.32-.45-.7-.8-1.11-1.1-.43-.3-.88-.48-1.35-.6.34-.21.63-.48.88-.8.25-.33.45-.69.63-1.11.18-.38.29-.8.38-1.28.09-.48.14-.95.14-1.49 0-.84-.09-1.58-.27-2.27-.18-.65-.45-1.22-.81-1.7-.37-.48-.84-.83-1.4-1.1-.57-.24-1.29-.39-2.19-.39h-3.32c-.15 0-.31.09-.45.24-.15.15-.22.42-.22.77v18.98c0 .38.07.65.22.8.16.15.32.21.48.21h4.19c.59 0 1.08-.06 1.53-.18.46-.12.86-.27 1.25-.51.36-.2.69-.47 1.01-.8.29-.33.54-.72.77-1.14.2-.41.36-.89.47-1.4.11-.5.18-1.07.18-1.7 0-.65-.09-1.28-.27-1.88zM271.3 264.63a1.18 1.18 0 0 0-.09-.3l-.14-.18c-.07-.03-.13-.06-.18-.06h-6.79v-18.67c0-.06-.02-.12-.04-.18s-.07-.09-.11-.12c-.05-.03-.14-.06-.23-.09-.09 0-.2-.03-.34-.03-.13 0-.27.03-.36.03-.09.03-.18.06-.22.09-.05.03-.09.06-.12.12-.02.06-.02.12-.02.18v19.57c0 .38.07.65.25.8.16.15.31.21.5.21h7.48c.07 0 .14 0 .18-.06.05-.03.09-.09.14-.18.04-.09.07-.18.09-.3 0-.12.02-.24.02-.41 0-.15-.02-.3-.02-.42zM282.19 264.63a.88.88 0 0 0-.09-.3l-.13-.18a.35.35 0 0 0-.16-.06H275v-7.64h6.83c.05 0 .12 0 .16-.06.05-.02.09-.08.14-.14.02-.06.04-.18.06-.3 0-.12.03-.24.03-.39 0-.18-.03-.33-.03-.45l-.06-.33-.14-.17a.314.314 0 0 0-.16-.06H275v-7.64h6.81c.05 0 .11 0 .16-.06.04-.03.09-.09.13-.18.05-.06.07-.15.09-.27 0-.12.03-.24.03-.42 0-.14-.03-.29-.03-.41-.02-.12-.04-.24-.09-.33-.04-.06-.06-.12-.11-.18a.314.314 0 0 0-.16-.06h-7.57c-.16 0-.32.09-.48.24-.15.15-.22.42-.22.77v18.98c0 .38.07.65.22.8.16.15.32.21.48.21h7.55c.05 0 .11 0 .16-.06.04-.03.09-.09.13-.18.05-.06.07-.18.09-.3 0-.12.03-.24.03-.41 0-.15-.03-.3-.03-.42zM295.62 258.04c-.25-.57-.57-1.08-.97-1.53-.41-.41-.88-.8-1.4-1.13-.52-.3-1.04-.6-1.58-.89-.54-.27-1.08-.54-1.6-.84-.52-.27-.97-.57-1.38-.92-.4-.33-.74-.72-.99-1.17-.25-.44-.36-.98-.36-1.64 0-.42.05-.8.18-1.16.14-.36.32-.69.59-.96.27-.26.58-.47.99-.65.38-.15.86-.24 1.4-.24s1.01.12 1.44.3c.41.21.77.41 1.08.65.3.24.54.48.75.66.2.21.36.3.47.3.05 0 .09 0 .14-.06.04-.06.06-.12.09-.21.02-.06.04-.18.06-.3 0-.12.03-.24.03-.39s-.03-.26-.03-.38-.02-.21-.02-.3l-.07-.18c-.02-.06-.06-.15-.15-.27s-.25-.3-.52-.54c-.27-.21-.57-.41-.88-.59-.32-.18-.68-.3-1.04-.42s-.72-.18-1.08-.18c-.72 0-1.4.12-1.99.36-.61.24-1.12.59-1.55 1.04-.43.45-.77.99-.99 1.61-.23.66-.34 1.37-.34 2.15 0 .84.11 1.55.36 2.15.25.59.58 1.1.99 1.52s.86.8 1.38 1.1c.51.33 1.06.63 1.6.9.54.3 1.06.56 1.58.83.51.3.99.6 1.39.93.41.36.73.74.97 1.19.25.45.39.99.39 1.58 0 .6-.12 1.14-.3 1.58-.18.48-.45.87-.76 1.17-.34.32-.75.56-1.2.74-.45.18-.97.24-1.51.24-.68 0-1.28-.09-1.78-.3a6.15 6.15 0 0 1-1.31-.65c-.36-.24-.68-.45-.9-.66-.23-.18-.41-.3-.52-.3-.07 0-.11.03-.16.06-.04.03-.09.09-.13.15a.58.58 0 0 0-.07.3c-.02.12-.02.3-.02.48 0 .26.02.47.06.65.05.18.12.36.21.48s.27.3.54.48c.25.18.56.38.95.56.36.18.79.36 1.28.48.48.12.99.18 1.56.18.79 0 1.53-.12 2.21-.39.67-.27 1.24-.65 1.73-1.16.5-.51.88-1.13 1.15-1.85.27-.72.41-1.55.41-2.48 0-.8-.14-1.49-.38-2.08z"/></g><g id="brand-icon" fill-rule="evenodd" clip-rule="evenodd"><path id="c-mark" fill="#27AE60" d="M223.52 96.14c8.25 32.74-6.04 65.4-35.79 81.93-29.63 16.45-65.11 11.62-89.1-12.02-23.92-23.56-28.92-58.4-12.6-87.61 16.37-29.28 49.02-43.7 82.07-36.14l6.78-28.18C128.85 3.67 83.46 23.84 60.74 64.58 38.1 105.19 45.03 153.61 78.22 186.4c33.35 32.94 82.73 39.78 124.04 16.93 41.56-22.98 61.54-68.55 49.99-114.23l-28.73 7.04z"/><path id="dbt-mark" fill="#666" d="M122.02 82.39l60.93 60.16 17.83 17.61c22.87-23.91 24.66-60.27 5.36-86.12l10.52-10.39 23.13 22.65 15.46-15.21-23.17-22.64 17.27-17.04-15.45-15.06-17.23 17.04-23.05-22.53-15.33 15.21 23 22.52-10.57 10.46c-26.16-18.41-62.45-16.35-86.34 5.93l17.64 17.41zm20.97-10.3c9.98-1.85 20.5-.21 29.54 4.94l-12.25 12.1-17.29-17.04zm44.97 19.88c5.52 9.05 7.33 19.69 5.44 29.78l-17.83-17.56 12.39-12.22zm-8.64 54.1l-60.85-60.11-17.64-17.42c-24.43 26.37-23.79 67.31 1.95 92.9 25.82 25.67 67.49 26.53 94.37 2.25l-17.83-17.62zm-21.36 9.94c-13.28 2.14-27.36-1.86-37.56-11.98-10.18-10.1-14.17-24-11.98-37.07l49.54 49.05z"/></g></svg>